<svg xmlns="http://www.w3.org/2000/svg" width="1850" height="968" viewBox="0 0 1850 968"><rect x="0" y="0" width="1850" height="968" fill="#FFFFFF"/><text x="925" y="62" font-family="Liberation Sans" font-size="38" font-weight="bold" text-anchor="middle" fill="#10324C">If World Cups were won on child data</text><text x="925" y="94" font-family="Liberation Sans" font-size="17" text-anchor="middle" fill="#42566A">The FIFA World Cup 26 bracket, every match decided by MICS programme strength</text><line x1="40" y1="116" x2="1810" y2="116" stroke="#1CABE2" stroke-width="3"/><text x="131" y="146" font-family="Liberation Sans" font-size="12.5" text-anchor="middle" letter-spacing="1.5" fill="#7A8B97">ROUND OF 32</text><text x="315" y="146" font-family="Liberation Sans" font-size="12.5" text-anchor="middle" letter-spacing="1.5" fill="#7A8B97">ROUND OF 16</text><text x="499" y="146" font-family="Liberation Sans" font-size="12.5" text-anchor="middle" letter-spacing="1.5" fill="#7A8B97">QUARTERFINALS</text><text x="683" y="146" font-family="Liberation Sans" font-size="12.5" text-anchor="middle" letter-spacing="1.5" fill="#7A8B97">SEMIFINAL</text><text x="1719" y="146" font-family="Liberation Sans" font-size="12.5" text-anchor="middle" letter-spacing="1.5" fill="#7A8B97">ROUND OF 32</text><text x="1527" y="146" font-family="Liberation Sans" font-size="12.5" text-anchor="middle" letter-spacing="1.5" fill="#7A8B97">ROUND OF 16</text><text x="1335" y="146" font-family="Liberation Sans" font-size="12.5" text-anchor="middle" letter-spacing="1.5" fill="#7A8B97">QUARTERFINALS</text><text x="1143" y="146" font-family="Liberation Sans" font-size="12.5" text-anchor="middle" letter-spacing="1.5" fill="#7A8B97">SEMIFINAL</text><rect x="40" y="179" width="182" height="26" rx="5" fill="#1CABE2"/><text x="50" y="198" font-family="Liberation Sans" font-size="13.5" font-weight="bold" fill="#FFFFFF">Ivory Coast</text><text x="213" y="198" font-family="Liberation Sans" font-size="12.5" font-weight="bold" text-anchor="end" fill="#FFFFFF">28</text><rect x="40" y="207" width="182" height="26" rx="5" fill="#F1F6F9"/><text x="50" y="226" font-family="Liberation Sans" font-size="13.5" fill="#5B6E7B">Australia</text><text x="213" y="226" font-family="Liberation Sans" font-size="12.5" font-weight="bold" text-anchor="end" fill="#5B6E7B">0</text><rect x="40" y="257" width="182" height="26" rx="5" fill="#1CABE2"/><text x="50" y="276" font-family="Liberation Sans" font-size="13.5" font-weight="bold" fill="#FFFFFF">Iraq</text><text x="213" y="276" font-family="Liberation Sans" font-size="12.5" font-weight="bold" text-anchor="end" fill="#FFFFFF">34</text><rect x="40" y="285" width="182" height="26" rx="5" fill="#F1F6F9"/><text x="50" y="304" font-family="Liberation Sans" font-size="13.5" fill="#5B6E7B">Spain</text><text x="213" y="304" font-family="Liberation Sans" font-size="12.5" font-weight="bold" text-anchor="end" fill="#5B6E7B">0</text><rect x="40" y="335" width="182" height="26" rx="5" fill="#F1F6F9"/><text x="50" y="354" font-family="Liberation Sans" font-size="13.5" fill="#5B6E7B">Czechia</text><text x="213" y="354" font-family="Liberation Sans" font-size="12.5" font-weight="bold" text-anchor="end" fill="#5B6E7B">0</text><rect x="40" y="363" width="182" height="26" rx="5" fill="#1CABE2"/><text x="50" y="382" font-family="Liberation Sans" font-size="13.5" font-weight="bold" fill="#FFFFFF">Qatar</text><text x="213" y="382" font-family="Liberation Sans" font-size="12.5" font-weight="bold" text-anchor="end" fill="#FFFFFF">11</text><rect x="40" y="413" width="182" height="26" rx="5" fill="#1CABE2"/><text x="50" y="432" font-family="Liberation Sans" font-size="13.5" font-weight="bold" fill="#FFFFFF">Tunisia</text><text x="213" y="432" font-family="Liberation Sans" font-size="12.5" font-weight="bold" text-anchor="end" fill="#FFFFFF">23</text><rect x="40" y="441" width="182" height="26" rx="5" fill="#F1F6F9"/><text x="50" y="460" font-family="Liberation Sans" font-size="13.5" fill="#5B6E7B">Brazil</text><text x="213" y="460" font-family="Liberation Sans" font-size="12.5" font-weight="bold" text-anchor="end" fill="#5B6E7B">0</text><rect x="40" y="491" width="182" height="26" rx="5" fill="#F1F6F9"/><text x="50" y="510" font-family="Liberation Sans" font-size="13.5" fill="#5B6E7B">Uzbekistan</text><text x="213" y="510" font-family="Liberation Sans" font-size="12.5" font-weight="bold" text-anchor="end" fill="#5B6E7B">16</text><rect x="40" y="519" width="182" height="26" rx="5" fill="#1CABE2"/><text x="50" y="538" font-family="Liberation Sans" font-size="13.5" font-weight="bold" fill="#FFFFFF">Panama</text><text x="213" y="538" font-family="Liberation Sans" font-size="12.5" font-weight="bold" text-anchor="end" fill="#FFFFFF">18</text><rect x="40" y="569" width="182" height="26" rx="5" fill="#F1F6F9"/><text x="50" y="588" font-family="Liberation Sans" font-size="13.5" fill="#5B6E7B">Saudi Arabia</text><text x="213" y="588" font-family="Liberation Sans" font-size="12.5" font-weight="bold" text-anchor="end" fill="#5B6E7B">8</text><rect x="40" y="597" width="182" height="26" rx="5" fill="#1CABE2"/><text x="50" y="616" font-family="Liberation Sans" font-size="13.5" font-weight="bold" fill="#FFFFFF">Argentina</text><text x="213" y="616" font-family="Liberation Sans" font-size="12.5" font-weight="bold" text-anchor="end" fill="#FFFFFF">10</text><rect x="40" y="647" width="182" height="26" rx="5" fill="#1CABE2"/><text x="50" y="666" font-family="Liberation Sans" font-size="13.5" font-weight="bold" fill="#FFFFFF">Paraguay</text><text x="213" y="666" font-family="Liberation Sans" font-size="12.5" font-weight="bold" text-anchor="end" fill="#FFFFFF">5</text><rect x="40" y="675" width="182" height="26" rx="5" fill="#F1F6F9"/><text x="50" y="694" font-family="Liberation Sans" font-size="13.5" fill="#5B6E7B">Netherlands</text><text x="213" y="694" font-family="Liberation Sans" font-size="12.5" font-weight="bold" text-anchor="end" fill="#5B6E7B">0</text><rect x="40" y="725" width="182" height="26" rx="5" fill="#1CABE2"/><text x="50" y="744" font-family="Liberation Sans" font-size="13.5" font-weight="bold" fill="#FFFFFF">Egypt</text><text x="213" y="744" font-family="Liberation Sans" font-size="12.5" font-weight="bold" text-anchor="end" fill="#FFFFFF">10</text><rect x="40" y="753" width="182" height="26" rx="5" fill="#F1F6F9"/><text x="50" y="772" font-family="Liberation Sans" font-size="13.5" fill="#5B6E7B">South Korea</text><text x="213" y="772" font-family="Liberation Sans" font-size="12.5" font-weight="bold" text-anchor="end" fill="#5B6E7B">0</text><rect x="224" y="218" width="182" height="26" rx="5" fill="#F1F6F9"/><text x="234" y="237" font-family="Liberation Sans" font-size="13.5" fill="#5B6E7B">Ivory Coast</text><text x="397" y="237" font-family="Liberation Sans" font-size="12.5" font-weight="bold" text-anchor="end" fill="#5B6E7B">28</text><rect x="224" y="246" width="182" height="26" rx="5" fill="#1CABE2"/><text x="234" y="265" font-family="Liberation Sans" font-size="13.5" font-weight="bold" fill="#FFFFFF">Iraq</text><text x="397" y="265" font-family="Liberation Sans" font-size="12.5" font-weight="bold" text-anchor="end" fill="#FFFFFF">34</text><rect x="224" y="374" width="182" height="26" rx="5" fill="#F1F6F9"/><text x="234" y="393" font-family="Liberation Sans" font-size="13.5" fill="#5B6E7B">Qatar</text><text x="397" y="393" font-family="Liberation Sans" font-size="12.5" font-weight="bold" text-anchor="end" fill="#5B6E7B">11</text><rect x="224" y="402" width="182" height="26" rx="5" fill="#1CABE2"/><text x="234" y="421" font-family="Liberation Sans" font-size="13.5" font-weight="bold" fill="#FFFFFF">Tunisia</text><text x="397" y="421" font-family="Liberation Sans" font-size="12.5" font-weight="bold" text-anchor="end" fill="#FFFFFF">23</text><rect x="224" y="530" width="182" height="26" rx="5" fill="#1CABE2"/><text x="234" y="549" font-family="Liberation Sans" font-size="13.5" font-weight="bold" fill="#FFFFFF">Panama</text><text x="397" y="549" font-family="Liberation Sans" font-size="12.5" font-weight="bold" text-anchor="end" fill="#FFFFFF">18</text><rect x="224" y="558" width="182" height="26" rx="5" fill="#F1F6F9"/><text x="234" y="577" font-family="Liberation Sans" font-size="13.5" fill="#5B6E7B">Argentina</text><text x="397" y="577" font-family="Liberation Sans" font-size="12.5" font-weight="bold" text-anchor="end" fill="#5B6E7B">10</text><rect x="224" y="686" width="182" height="26" rx="5" fill="#F1F6F9"/><text x="234" y="705" font-family="Liberation Sans" font-size="13.5" fill="#5B6E7B">Paraguay</text><text x="397" y="705" font-family="Liberation Sans" font-size="12.5" font-weight="bold" text-anchor="end" fill="#5B6E7B">5</text><rect x="224" y="714" width="182" height="26" rx="5" fill="#1CABE2"/><text x="234" y="733" font-family="Liberation Sans" font-size="13.5" font-weight="bold" fill="#FFFFFF">Egypt</text><text x="397" y="733" font-family="Liberation Sans" font-size="12.5" font-weight="bold" text-anchor="end" fill="#FFFFFF">10</text><rect x="408" y="296" width="182" height="26" rx="5" fill="#1CABE2"/><text x="418" y="315" font-family="Liberation Sans" font-size="13.5" font-weight="bold" fill="#FFFFFF">Iraq</text><text x="581" y="315" font-family="Liberation Sans" font-size="12.5" font-weight="bold" text-anchor="end" fill="#FFFFFF">34</text><rect x="408" y="324" width="182" height="26" rx="5" fill="#F1F6F9"/><text x="418" y="343" font-family="Liberation Sans" font-size="13.5" fill="#5B6E7B">Tunisia</text><text x="581" y="343" font-family="Liberation Sans" font-size="12.5" font-weight="bold" text-anchor="end" fill="#5B6E7B">23</text><rect x="408" y="608" width="182" height="26" rx="5" fill="#1CABE2"/><text x="418" y="627" font-family="Liberation Sans" font-size="13.5" font-weight="bold" fill="#FFFFFF">Panama</text><text x="581" y="627" font-family="Liberation Sans" font-size="12.5" font-weight="bold" text-anchor="end" fill="#FFFFFF">18</text><rect x="408" y="636" width="182" height="26" rx="5" fill="#F1F6F9"/><text x="418" y="655" font-family="Liberation Sans" font-size="13.5" fill="#5B6E7B">Egypt</text><text x="581" y="655" font-family="Liberation Sans" font-size="12.5" font-weight="bold" text-anchor="end" fill="#5B6E7B">10</text><rect x="592" y="452" width="182" height="26" rx="5" fill="#1CABE2"/><text x="602" y="471" font-family="Liberation Sans" font-size="13.5" font-weight="bold" fill="#FFFFFF">Iraq</text><text x="765" y="471" font-family="Liberation Sans" font-size="12.5" font-weight="bold" text-anchor="end" fill="#FFFFFF">34</text><rect x="592" y="480" width="182" height="26" rx="5" fill="#F1F6F9"/><text x="602" y="499" font-family="Liberation Sans" font-size="13.5" fill="#5B6E7B">Panama</text><text x="765" y="499" font-family="Liberation Sans" font-size="12.5" font-weight="bold" text-anchor="end" fill="#5B6E7B">18</text><path d="M 222 207 H 223 V 246 H 224" fill="none" stroke="#C9D5DD" stroke-width="1.6"/><path d="M 222 285 H 223 V 246 H 224" fill="none" stroke="#C9D5DD" stroke-width="1.6"/><path d="M 222 363 H 223 V 402 H 224" fill="none" stroke="#C9D5DD" stroke-width="1.6"/><path d="M 222 441 H 223 V 402 H 224" fill="none" stroke="#C9D5DD" stroke-width="1.6"/><path d="M 222 519 H 223 V 558 H 224" fill="none" stroke="#C9D5DD" stroke-width="1.6"/><path d="M 222 597 H 223 V 558 H 224" fill="none" stroke="#C9D5DD" stroke-width="1.6"/><path d="M 222 675 H 223 V 714 H 224" fill="none" stroke="#C9D5DD" stroke-width="1.6"/><path d="M 222 753 H 223 V 714 H 224" fill="none" stroke="#C9D5DD" stroke-width="1.6"/><path d="M 406 246 H 407 V 324 H 408" fill="none" stroke="#C9D5DD" stroke-width="1.6"/><path d="M 406 402 H 407 V 324 H 408" fill="none" stroke="#C9D5DD" stroke-width="1.6"/><path d="M 406 558 H 407 V 636 H 408" fill="none" stroke="#C9D5DD" stroke-width="1.6"/><path d="M 406 714 H 407 V 636 H 408" fill="none" stroke="#C9D5DD" stroke-width="1.6"/><path d="M 590 324 H 591 V 480 H 592" fill="none" stroke="#C9D5DD" stroke-width="1.6"/><path d="M 590 636 H 591 V 480 H 592" fill="none" stroke="#C9D5DD" stroke-width="1.6"/><rect x="1628" y="179" width="182" height="26" rx="5" fill="#1CABE2"/><text x="1638" y="198" font-family="Liberation Sans" font-size="13.5" font-weight="bold" fill="#FFFFFF">Morocco</text><text x="1801" y="198" font-family="Liberation Sans" font-size="12.5" font-weight="bold" text-anchor="end" fill="#FFFFFF">9</text><rect x="1628" y="207" width="182" height="26" rx="5" fill="#F1F6F9"/><text x="1638" y="226" font-family="Liberation Sans" font-size="13.5" fill="#5B6E7B">Sweden</text><text x="1801" y="226" font-family="Liberation Sans" font-size="12.5" font-weight="bold" text-anchor="end" fill="#5B6E7B">0</text><rect x="1628" y="257" width="182" height="26" rx="5" fill="#F1F6F9"/><text x="1638" y="276" font-family="Liberation Sans" font-size="13.5" fill="#5B6E7B">Germany</text><text x="1801" y="276" font-family="Liberation Sans" font-size="12.5" font-weight="bold" text-anchor="end" fill="#5B6E7B">0</text><rect x="1628" y="285" width="182" height="26" rx="5" fill="#1CABE2"/><text x="1638" y="304" font-family="Liberation Sans" font-size="13.5" font-weight="bold" fill="#FFFFFF">Senegal</text><text x="1801" y="304" font-family="Liberation Sans" font-size="12.5" font-weight="bold" text-anchor="end" fill="#FFFFFF">15</text><rect x="1628" y="335" width="182" height="26" rx="5" fill="#1CABE2"/><text x="1638" y="354" font-family="Liberation Sans" font-size="13.5" font-weight="bold" fill="#FFFFFF">Mexico</text><text x="1801" y="354" font-family="Liberation Sans" font-size="12.5" font-weight="bold" text-anchor="end" fill="#FFFFFF">5</text><rect x="1628" y="363" width="182" height="26" rx="5" fill="#F1F6F9"/><text x="1638" y="382" font-family="Liberation Sans" font-size="13.5" fill="#5B6E7B">Haiti</text><text x="1801" y="382" font-family="Liberation Sans" font-size="12.5" font-weight="bold" text-anchor="end" fill="#5B6E7B">0</text><rect x="1628" y="413" width="182" height="26" rx="5" fill="#1CABE2"/><text x="1638" y="432" font-family="Liberation Sans" font-size="13.5" font-weight="bold" fill="#FFFFFF">Ghana</text><text x="1801" y="432" font-family="Liberation Sans" font-size="12.5" font-weight="bold" text-anchor="end" fill="#FFFFFF">32</text><rect x="1628" y="441" width="182" height="26" rx="5" fill="#F1F6F9"/><text x="1638" y="460" font-family="Liberation Sans" font-size="13.5" fill="#5B6E7B">Colombia</text><text x="1801" y="460" font-family="Liberation Sans" font-size="12.5" font-weight="bold" text-anchor="end" fill="#5B6E7B">0</text><rect x="1628" y="491" width="182" height="26" rx="5" fill="#1CABE2"/><text x="1638" y="510" font-family="Liberation Sans" font-size="13.5" font-weight="bold" fill="#FFFFFF">Algeria</text><text x="1801" y="510" font-family="Liberation Sans" font-size="12.5" font-weight="bold" text-anchor="end" fill="#FFFFFF">33</text><rect x="1628" y="519" width="182" height="26" rx="5" fill="#F1F6F9"/><text x="1638" y="538" font-family="Liberation Sans" font-size="13.5" fill="#5B6E7B">Uruguay</text><text x="1801" y="538" font-family="Liberation Sans" font-size="12.5" font-weight="bold" text-anchor="end" fill="#5B6E7B">5</text><rect x="1628" y="569" width="182" height="26" rx="5" fill="#F1F6F9"/><text x="1638" y="588" font-family="Liberation Sans" font-size="13.5" fill="#5B6E7B">Türkiye</text><text x="1801" y="588" font-family="Liberation Sans" font-size="12.5" font-weight="bold" text-anchor="end" fill="#5B6E7B">5</text><rect x="1628" y="597" width="182" height="26" rx="5" fill="#1CABE2"/><text x="1638" y="616" font-family="Liberation Sans" font-size="13.5" font-weight="bold" fill="#FFFFFF">Iran</text><text x="1801" y="616" font-family="Liberation Sans" font-size="12.5" font-weight="bold" text-anchor="end" fill="#FFFFFF">7</text><rect x="1628" y="647" width="182" height="26" rx="5" fill="#1CABE2"/><text x="1638" y="666" font-family="Liberation Sans" font-size="13.5" font-weight="bold" fill="#FFFFFF">Bosnia &amp; Herz.</text><text x="1801" y="666" font-family="Liberation Sans" font-size="12.5" font-weight="bold" text-anchor="end" fill="#FFFFFF">17</text><rect x="1628" y="675" width="182" height="26" rx="5" fill="#F1F6F9"/><text x="1638" y="694" font-family="Liberation Sans" font-size="13.5" fill="#5B6E7B">New Zealand</text><text x="1801" y="694" font-family="Liberation Sans" font-size="12.5" font-weight="bold" text-anchor="end" fill="#5B6E7B">0</text><rect x="1628" y="725" width="182" height="26" rx="5" fill="#1CABE2"/><text x="1638" y="744" font-family="Liberation Sans" font-size="13.5" font-weight="bold" fill="#FFFFFF">DR Congo</text><text x="1801" y="744" font-family="Liberation Sans" font-size="12.5" font-weight="bold" text-anchor="end" fill="#FFFFFF">20</text><rect x="1628" y="753" width="182" height="26" rx="5" fill="#F1F6F9"/><text x="1638" y="772" font-family="Liberation Sans" font-size="13.5" fill="#5B6E7B">Croatia</text><text x="1801" y="772" font-family="Liberation Sans" font-size="12.5" font-weight="bold" text-anchor="end" fill="#5B6E7B">5</text><rect x="1436" y="218" width="182" height="26" rx="5" fill="#F1F6F9"/><text x="1446" y="237" font-family="Liberation Sans" font-size="13.5" fill="#5B6E7B">Morocco</text><text x="1609" y="237" font-family="Liberation Sans" font-size="12.5" font-weight="bold" text-anchor="end" fill="#5B6E7B">9</text><rect x="1436" y="246" width="182" height="26" rx="5" fill="#1CABE2"/><text x="1446" y="265" font-family="Liberation Sans" font-size="13.5" font-weight="bold" fill="#FFFFFF">Senegal</text><text x="1609" y="265" font-family="Liberation Sans" font-size="12.5" font-weight="bold" text-anchor="end" fill="#FFFFFF">15</text><rect x="1436" y="374" width="182" height="26" rx="5" fill="#F1F6F9"/><text x="1446" y="393" font-family="Liberation Sans" font-size="13.5" fill="#5B6E7B">Mexico</text><text x="1609" y="393" font-family="Liberation Sans" font-size="12.5" font-weight="bold" text-anchor="end" fill="#5B6E7B">5</text><rect x="1436" y="402" width="182" height="26" rx="5" fill="#1CABE2"/><text x="1446" y="421" font-family="Liberation Sans" font-size="13.5" font-weight="bold" fill="#FFFFFF">Ghana</text><text x="1609" y="421" font-family="Liberation Sans" font-size="12.5" font-weight="bold" text-anchor="end" fill="#FFFFFF">32</text><rect x="1436" y="530" width="182" height="26" rx="5" fill="#1CABE2"/><text x="1446" y="549" font-family="Liberation Sans" font-size="13.5" font-weight="bold" fill="#FFFFFF">Algeria</text><text x="1609" y="549" font-family="Liberation Sans" font-size="12.5" font-weight="bold" text-anchor="end" fill="#FFFFFF">33</text><rect x="1436" y="558" width="182" height="26" rx="5" fill="#F1F6F9"/><text x="1446" y="577" font-family="Liberation Sans" font-size="13.5" fill="#5B6E7B">Iran</text><text x="1609" y="577" font-family="Liberation Sans" font-size="12.5" font-weight="bold" text-anchor="end" fill="#5B6E7B">7</text><rect x="1436" y="686" width="182" height="26" rx="5" fill="#F1F6F9"/><text x="1446" y="705" font-family="Liberation Sans" font-size="13.5" fill="#5B6E7B">Bosnia &amp; Herz.</text><text x="1609" y="705" font-family="Liberation Sans" font-size="12.5" font-weight="bold" text-anchor="end" fill="#5B6E7B">17</text><rect x="1436" y="714" width="182" height="26" rx="5" fill="#1CABE2"/><text x="1446" y="733" font-family="Liberation Sans" font-size="13.5" font-weight="bold" fill="#FFFFFF">DR Congo</text><text x="1609" y="733" font-family="Liberation Sans" font-size="12.5" font-weight="bold" text-anchor="end" fill="#FFFFFF">20</text><rect x="1244" y="296" width="182" height="26" rx="5" fill="#F1F6F9"/><text x="1254" y="315" font-family="Liberation Sans" font-size="13.5" fill="#5B6E7B">Senegal</text><text x="1417" y="315" font-family="Liberation Sans" font-size="12.5" font-weight="bold" text-anchor="end" fill="#5B6E7B">15</text><rect x="1244" y="324" width="182" height="26" rx="5" fill="#1CABE2"/><text x="1254" y="343" font-family="Liberation Sans" font-size="13.5" font-weight="bold" fill="#FFFFFF">Ghana</text><text x="1417" y="343" font-family="Liberation Sans" font-size="12.5" font-weight="bold" text-anchor="end" fill="#FFFFFF">32</text><rect x="1244" y="608" width="182" height="26" rx="5" fill="#1CABE2"/><text x="1254" y="627" font-family="Liberation Sans" font-size="13.5" font-weight="bold" fill="#FFFFFF">Algeria</text><text x="1417" y="627" font-family="Liberation Sans" font-size="12.5" font-weight="bold" text-anchor="end" fill="#FFFFFF">33</text><rect x="1244" y="636" width="182" height="26" rx="5" fill="#F1F6F9"/><text x="1254" y="655" font-family="Liberation Sans" font-size="13.5" fill="#5B6E7B">DR Congo</text><text x="1417" y="655" font-family="Liberation Sans" font-size="12.5" font-weight="bold" text-anchor="end" fill="#5B6E7B">20</text><rect x="1052" y="452" width="182" height="26" rx="5" fill="#F1F6F9"/><text x="1062" y="471" font-family="Liberation Sans" font-size="13.5" fill="#5B6E7B">Ghana</text><text x="1225" y="471" font-family="Liberation Sans" font-size="12.5" font-weight="bold" text-anchor="end" fill="#5B6E7B">32</text><rect x="1052" y="480" width="182" height="26" rx="5" fill="#1CABE2"/><text x="1062" y="499" font-family="Liberation Sans" font-size="13.5" font-weight="bold" fill="#FFFFFF">Algeria</text><text x="1225" y="499" font-family="Liberation Sans" font-size="12.5" font-weight="bold" text-anchor="end" fill="#FFFFFF">33</text><path d="M 1628 207 H 1627 V 246 H 1618" fill="none" stroke="#C9D5DD" stroke-width="1.6"/><path d="M 1628 285 H 1627 V 246 H 1618" fill="none" stroke="#C9D5DD" stroke-width="1.6"/><path d="M 1628 363 H 1627 V 402 H 1618" fill="none" stroke="#C9D5DD" stroke-width="1.6"/><path d="M 1628 441 H 1627 V 402 H 1618" fill="none" stroke="#C9D5DD" stroke-width="1.6"/><path d="M 1628 519 H 1627 V 558 H 1618" fill="none" stroke="#C9D5DD" stroke-width="1.6"/><path d="M 1628 597 H 1627 V 558 H 1618" fill="none" stroke="#C9D5DD" stroke-width="1.6"/><path d="M 1628 675 H 1627 V 714 H 1618" fill="none" stroke="#C9D5DD" stroke-width="1.6"/><path d="M 1628 753 H 1627 V 714 H 1618" fill="none" stroke="#C9D5DD" stroke-width="1.6"/><path d="M 1436 246 H 1435 V 324 H 1426" fill="none" stroke="#C9D5DD" stroke-width="1.6"/><path d="M 1436 402 H 1435 V 324 H 1426" fill="none" stroke="#C9D5DD" stroke-width="1.6"/><path d="M 1436 558 H 1435 V 636 H 1426" fill="none" stroke="#C9D5DD" stroke-width="1.6"/><path d="M 1436 714 H 1435 V 636 H 1426" fill="none" stroke="#C9D5DD" stroke-width="1.6"/><path d="M 1244 324 H 1243 V 480 H 1234" fill="none" stroke="#C9D5DD" stroke-width="1.6"/><path d="M 1244 636 H 1243 V 480 H 1234" fill="none" stroke="#C9D5DD" stroke-width="1.6"/><rect x="793" y="382" width="264" height="196" rx="14" fill="#10324C"/><rect x="817" y="476" width="216" height="40" rx="8" fill="#FFC20E"/><text x="925" y="416" font-family="Liberation Sans" font-size="12.5" text-anchor="middle" fill="#FFC20E">FINAL · METLIFE · JULY 19</text><text x="925" y="456" font-family="Liberation Sans" font-size="24" font-weight="bold" text-anchor="middle" fill="#FFFFFF">IRAQ 34 – 33 ALGERIA</text><text x="925" y="503" font-family="Liberation Sans" font-size="19" font-weight="bold" text-anchor="middle" fill="#10324C">🏆 CHAMPION: IRAQ</text><text x="925" y="540" font-family="Liberation Sans" font-size="11.5" text-anchor="middle" fill="#BCD4E2">6 surveys · 6 rounds · MICS7 in processing</text><text x="925" y="560" font-family="Liberation Sans" font-size="11.5" text-anchor="middle" fill="#BCD4E2">Third place: Ghana 32 – 18 Panama</text><text x="40" y="818" font-family="Liberation Sans" font-size="14" fill="#7A8B97">GROUP STAGE — qualifiers (1st · 2nd · 3rd, * = among best eight thirds)</text><circle cx="51.0" cy="846" r="10" fill="#10324C"/><text x="51.0" y="850" font-family="Liberation Sans" font-size="12" font-weight="bold" text-anchor="middle" fill="#FFFFFF">A</text><text x="68.0" y="850" font-family="Liberation Sans" font-size="12.5" font-weight="bold" fill="#0E7CB1">Mexico</text><text x="68.0" y="869" font-family="Liberation Sans" font-size="12" fill="#10324C">Czechia</text><text x="68.0" y="887" font-family="Liberation Sans" font-size="12" fill="#7A8B97">South Korea*</text><circle cx="198.5" cy="846" r="10" fill="#10324C"/><text x="198.5" y="850" font-family="Liberation Sans" font-size="12" font-weight="bold" text-anchor="middle" fill="#FFFFFF">B</text><text x="215.5" y="850" font-family="Liberation Sans" font-size="12.5" font-weight="bold" fill="#0E7CB1">Bosnia &amp; Herz.</text><text x="215.5" y="869" font-family="Liberation Sans" font-size="12" fill="#10324C">Qatar</text><text x="215.5" y="887" font-family="Liberation Sans" font-size="12" fill="#7A8B97">Switzerland</text><circle cx="346.0" cy="846" r="10" fill="#10324C"/><text x="346.0" y="850" font-family="Liberation Sans" font-size="12" font-weight="bold" text-anchor="middle" fill="#FFFFFF">C</text><text x="363.0" y="850" font-family="Liberation Sans" font-size="12.5" font-weight="bold" fill="#0E7CB1">Morocco</text><text x="363.0" y="869" font-family="Liberation Sans" font-size="12" fill="#10324C">Brazil</text><text x="363.0" y="887" font-family="Liberation Sans" font-size="12" fill="#7A8B97">Haiti*</text><circle cx="493.5" cy="846" r="10" fill="#10324C"/><text x="493.5" y="850" font-family="Liberation Sans" font-size="12" font-weight="bold" text-anchor="middle" fill="#FFFFFF">D</text><text x="510.5" y="850" font-family="Liberation Sans" font-size="12.5" font-weight="bold" fill="#0E7CB1">Paraguay</text><text x="510.5" y="869" font-family="Liberation Sans" font-size="12" fill="#10324C">Türkiye</text><text x="510.5" y="887" font-family="Liberation Sans" font-size="12" fill="#7A8B97">Australia*</text><circle cx="641.0" cy="846" r="10" fill="#10324C"/><text x="641.0" y="850" font-family="Liberation Sans" font-size="12" font-weight="bold" text-anchor="middle" fill="#FFFFFF">E</text><text x="658.0" y="850" font-family="Liberation Sans" font-size="12.5" font-weight="bold" fill="#0E7CB1">Ivory Coast</text><text x="658.0" y="869" font-family="Liberation Sans" font-size="12" fill="#10324C">Germany</text><text x="658.0" y="887" font-family="Liberation Sans" font-size="12" fill="#7A8B97">Ecuador</text><circle cx="788.5" cy="846" r="10" fill="#10324C"/><text x="788.5" y="850" font-family="Liberation Sans" font-size="12" font-weight="bold" text-anchor="middle" fill="#FFFFFF">F</text><text x="805.5" y="850" font-family="Liberation Sans" font-size="12.5" font-weight="bold" fill="#0E7CB1">Tunisia</text><text x="805.5" y="869" font-family="Liberation Sans" font-size="12" fill="#10324C">Sweden</text><text x="805.5" y="887" font-family="Liberation Sans" font-size="12" fill="#7A8B97">Netherlands*</text><circle cx="936.0" cy="846" r="10" fill="#10324C"/><text x="936.0" y="850" font-family="Liberation Sans" font-size="12" font-weight="bold" text-anchor="middle" fill="#FFFFFF">G</text><text x="953.0" y="850" font-family="Liberation Sans" font-size="12.5" font-weight="bold" fill="#0E7CB1">Egypt</text><text x="953.0" y="869" font-family="Liberation Sans" font-size="12" fill="#10324C">Iran</text><text x="953.0" y="887" font-family="Liberation Sans" font-size="12" fill="#7A8B97">New Zealand*</text><circle cx="1083.5" cy="846" r="10" fill="#10324C"/><text x="1083.5" y="850" font-family="Liberation Sans" font-size="12" font-weight="bold" text-anchor="middle" fill="#FFFFFF">H</text><text x="1100.5" y="850" font-family="Liberation Sans" font-size="12.5" font-weight="bold" fill="#0E7CB1">Saudi Arabia</text><text x="1100.5" y="869" font-family="Liberation Sans" font-size="12" fill="#10324C">Uruguay</text><text x="1100.5" y="887" font-family="Liberation Sans" font-size="12" fill="#7A8B97">Spain*</text><circle cx="1231.0" cy="846" r="10" fill="#10324C"/><text x="1231.0" y="850" font-family="Liberation Sans" font-size="12" font-weight="bold" text-anchor="middle" fill="#FFFFFF">I</text><text x="1248.0" y="850" font-family="Liberation Sans" font-size="12.5" font-weight="bold" fill="#0E7CB1">Iraq</text><text x="1248.0" y="869" font-family="Liberation Sans" font-size="12" fill="#10324C">Senegal</text><text x="1248.0" y="887" font-family="Liberation Sans" font-size="12" fill="#7A8B97">Norway</text><circle cx="1378.5" cy="846" r="10" fill="#10324C"/><text x="1378.5" y="850" font-family="Liberation Sans" font-size="12" font-weight="bold" text-anchor="middle" fill="#FFFFFF">J</text><text x="1395.5" y="850" font-family="Liberation Sans" font-size="12.5" font-weight="bold" fill="#0E7CB1">Algeria</text><text x="1395.5" y="869" font-family="Liberation Sans" font-size="12" fill="#10324C">Argentina</text><text x="1395.5" y="887" font-family="Liberation Sans" font-size="12" fill="#7A8B97">Jordan</text><circle cx="1526.0" cy="846" r="10" fill="#10324C"/><text x="1526.0" y="850" font-family="Liberation Sans" font-size="12" font-weight="bold" text-anchor="middle" fill="#FFFFFF">K</text><text x="1543.0" y="850" font-family="Liberation Sans" font-size="12.5" font-weight="bold" fill="#0E7CB1">DR Congo</text><text x="1543.0" y="869" font-family="Liberation Sans" font-size="12" fill="#10324C">Uzbekistan</text><text x="1543.0" y="887" font-family="Liberation Sans" font-size="12" fill="#7A8B97">Colombia*</text><circle cx="1673.5" cy="846" r="10" fill="#10324C"/><text x="1673.5" y="850" font-family="Liberation Sans" font-size="12" font-weight="bold" text-anchor="middle" fill="#FFFFFF">L</text><text x="1690.5" y="850" font-family="Liberation Sans" font-size="12.5" font-weight="bold" fill="#0E7CB1">Ghana</text><text x="1690.5" y="869" font-family="Liberation Sans" font-size="12" fill="#10324C">Panama</text><text x="1690.5" y="887" font-family="Liberation Sans" font-size="12" fill="#7A8B97">Croatia*</text><text x="40" y="916" font-family="Liberation Sans" font-size="12.5" fill="#7A8B97">Simulation: official FIFA World Cup 26 bracket (final draw, 5 Dec 2025); match outcomes decided by MICS programme strength derived from the UNICEF MICS survey catalogue (427 records, MICS1–MICS7):</text><text x="40" y="934" font-family="Liberation Sans" font-size="12.5" fill="#7A8B97">2 pts per survey + 3 pts per distinct round + bonuses for a MICS7 in the current round, reaching data processing, and fieldwork since 2020. Ties resolved by seeded penalties (seed = 1995, the year MICS began). Reproducible: make_bracket.py. UNICEF · Data &amp; Analytics · June 2026.</text></svg>