<svg xmlns="http://www.w3.org/2000/svg" width="1200" height="1124" viewBox="0 0 1200 1124"><rect x="0" y="0" width="1200" height="1124" fill="#FFFFFF"/><text x="56" y="86" font-family="Liberation Sans" font-size="40" font-weight="bold" fill="#10324C">The other league table</text><text x="56" y="122" font-family="Liberation Sans" font-size="19" fill="#42566A">MICS coverage across the 48 nations at the FIFA World Cup 26</text><line x1="56" y1="146" x2="1144" y2="146" stroke="#1CABE2" stroke-width="3"/><text x="56" y="192" font-family="Liberation Sans" font-size="36" font-weight="bold" fill="#1CABE2">21</text><text x="130" y="192" font-family="Liberation Sans" font-size="16" fill="#10324C">of 48 nations participate in MICS</text><text x="480" y="192" font-family="Liberation Sans" font-size="36" font-weight="bold" fill="#1CABE2">61</text><text x="554" y="192" font-family="Liberation Sans" font-size="16" fill="#10324C">MICS surveys since 1995</text><text x="811" y="192" font-family="Liberation Sans" font-size="36" font-weight="bold" fill="#1CABE2">7</text><text x="863" y="192" font-family="Liberation Sans" font-size="16" fill="#10324C">with a MICS7 in the current round</text><text x="70" y="254" font-family="Liberation Sans" font-size="14" fill="#7A8B97">GROUP</text><circle cx="154" cy="248" r="14" fill="#10324C"/><text x="154" y="254" font-family="Liberation Sans" font-size="16" font-weight="bold" text-anchor="middle" fill="#FFFFFF">A</text><rect x="66" y="266" width="235.5" height="35" rx="7" fill="#C8E9F8"/><text x="78" y="290" font-family="Liberation Sans" font-size="15.5" fill="#10324C">Mexico</text><text x="287.5" y="290" font-family="Liberation Sans" font-size="15.5" text-anchor="end" fill="#10324C">1</text><rect x="66" y="308" width="235.5" height="35" rx="7" fill="#EEF3F6"/><text x="78" y="332" font-family="Liberation Sans" font-size="15.5" fill="#6B7C88">South Africa</text><rect x="66" y="350" width="235.5" height="35" rx="7" fill="#EEF3F6"/><text x="78" y="374" font-family="Liberation Sans" font-size="15.5" fill="#6B7C88">South Korea</text><rect x="66" y="392" width="235.5" height="35" rx="7" fill="#EEF3F6"/><text x="78" y="416" font-family="Liberation Sans" font-size="15.5" fill="#6B7C88">Czechia</text><text x="347.5" y="254" font-family="Liberation Sans" font-size="14" fill="#7A8B97">GROUP</text><circle cx="431.5" cy="248" r="14" fill="#10324C"/><text x="431.5" y="254" font-family="Liberation Sans" font-size="16" font-weight="bold" text-anchor="middle" fill="#FFFFFF">B</text><rect x="343.5" y="266" width="235.5" height="35" rx="7" fill="#EEF3F6"/><text x="355.5" y="290" font-family="Liberation Sans" font-size="15.5" fill="#6B7C88">Canada</text><rect x="343.5" y="308" width="235.5" height="35" rx="7" fill="#EEF3F6"/><text x="355.5" y="332" font-family="Liberation Sans" font-size="15.5" fill="#6B7C88">Switzerland</text><rect x="343.5" y="350" width="235.5" height="35" rx="7" fill="#C8E9F8"/><text x="355.5" y="374" font-family="Liberation Sans" font-size="15.5" fill="#10324C">Qatar</text><text x="565.0" y="374" font-family="Liberation Sans" font-size="15.5" text-anchor="end" fill="#10324C">2</text><rect x="343.5" y="392" width="235.5" height="35" rx="7" fill="#7FCBEE"/><text x="355.5" y="416" font-family="Liberation Sans" font-size="15.5" fill="#10324C">Bosnia &amp; Herz.</text><text x="565.0" y="416" font-family="Liberation Sans" font-size="15.5" text-anchor="end" fill="#10324C">4</text><text x="625" y="254" font-family="Liberation Sans" font-size="14" fill="#7A8B97">GROUP</text><circle cx="709" cy="248" r="14" fill="#10324C"/><text x="709" y="254" font-family="Liberation Sans" font-size="16" font-weight="bold" text-anchor="middle" fill="#FFFFFF">C</text><rect x="621" y="266" width="235.5" height="35" rx="7" fill="#EEF3F6"/><text x="633" y="290" font-family="Liberation Sans" font-size="15.5" fill="#6B7C88">Brazil</text><rect x="621" y="308" width="235.5" height="35" rx="7" fill="#C8E9F8"/><text x="633" y="332" font-family="Liberation Sans" font-size="15.5" fill="#10324C">Morocco</text><text x="842.5" y="332" font-family="Liberation Sans" font-size="15.5" text-anchor="end" fill="#10324C">1</text><circle cx="822.5" cy="325.5" r="5" fill="#FFC20E"/><rect x="621" y="350" width="235.5" height="35" rx="7" fill="#EEF3F6"/><text x="633" y="374" font-family="Liberation Sans" font-size="15.5" fill="#6B7C88">Haiti</text><rect x="621" y="392" width="235.5" height="35" rx="7" fill="#EEF3F6"/><text x="633" y="416" font-family="Liberation Sans" font-size="15.5" fill="#6B7C88">Scotland</text><text x="902.5" y="254" font-family="Liberation Sans" font-size="14" fill="#7A8B97">GROUP</text><circle cx="986.5" cy="248" r="14" fill="#10324C"/><text x="986.5" y="254" font-family="Liberation Sans" font-size="16" font-weight="bold" text-anchor="middle" fill="#FFFFFF">D</text><rect x="898.5" y="266" width="235.5" height="35" rx="7" fill="#EEF3F6"/><text x="910.5" y="290" font-family="Liberation Sans" font-size="15.5" fill="#6B7C88">United States</text><rect x="898.5" y="308" width="235.5" height="35" rx="7" fill="#C8E9F8"/><text x="910.5" y="332" font-family="Liberation Sans" font-size="15.5" fill="#10324C">Paraguay</text><text x="1120.0" y="332" font-family="Liberation Sans" font-size="15.5" text-anchor="end" fill="#10324C">1</text><rect x="898.5" y="350" width="235.5" height="35" rx="7" fill="#EEF3F6"/><text x="910.5" y="374" font-family="Liberation Sans" font-size="15.5" fill="#6B7C88">Australia</text><rect x="898.5" y="392" width="235.5" height="35" rx="7" fill="#C8E9F8"/><text x="910.5" y="416" font-family="Liberation Sans" font-size="15.5" fill="#10324C">Türkiye</text><text x="1120.0" y="416" font-family="Liberation Sans" font-size="15.5" text-anchor="end" fill="#10324C">1</text><text x="70" y="494" font-family="Liberation Sans" font-size="14" fill="#7A8B97">GROUP</text><circle cx="154" cy="488" r="14" fill="#10324C"/><text x="154" y="494" font-family="Liberation Sans" font-size="16" font-weight="bold" text-anchor="middle" fill="#FFFFFF">E</text><rect x="66" y="506" width="235.5" height="35" rx="7" fill="#EEF3F6"/><text x="78" y="530" font-family="Liberation Sans" font-size="15.5" fill="#6B7C88">Germany</text><rect x="66" y="548" width="235.5" height="35" rx="7" fill="#EEF3F6"/><text x="78" y="572" font-family="Liberation Sans" font-size="15.5" fill="#6B7C88">Curacao</text><rect x="66" y="590" width="235.5" height="35" rx="7" fill="#2FA8DC"/><text x="78" y="614" font-family="Liberation Sans" font-size="15.5" fill="#FFFFFF">Ivory Coast</text><text x="287.5" y="614" font-family="Liberation Sans" font-size="15.5" text-anchor="end" fill="#FFFFFF">5</text><circle cx="267.5" cy="607.5" r="5" fill="#FFC20E"/><rect x="66" y="632" width="235.5" height="35" rx="7" fill="#EEF3F6"/><text x="78" y="656" font-family="Liberation Sans" font-size="15.5" fill="#6B7C88">Ecuador</text><text x="347.5" y="494" font-family="Liberation Sans" font-size="14" fill="#7A8B97">GROUP</text><circle cx="431.5" cy="488" r="14" fill="#10324C"/><text x="431.5" y="494" font-family="Liberation Sans" font-size="16" font-weight="bold" text-anchor="middle" fill="#FFFFFF">F</text><rect x="343.5" y="506" width="235.5" height="35" rx="7" fill="#EEF3F6"/><text x="355.5" y="530" font-family="Liberation Sans" font-size="15.5" fill="#6B7C88">Netherlands</text><rect x="343.5" y="548" width="235.5" height="35" rx="7" fill="#EEF3F6"/><text x="355.5" y="572" font-family="Liberation Sans" font-size="15.5" fill="#6B7C88">Japan</text><rect x="343.5" y="590" width="235.5" height="35" rx="7" fill="#2FA8DC"/><text x="355.5" y="614" font-family="Liberation Sans" font-size="15.5" fill="#FFFFFF">Tunisia</text><text x="565.0" y="614" font-family="Liberation Sans" font-size="15.5" text-anchor="end" fill="#FFFFFF">5</text><rect x="343.5" y="632" width="235.5" height="35" rx="7" fill="#EEF3F6"/><text x="355.5" y="656" font-family="Liberation Sans" font-size="15.5" fill="#6B7C88">Sweden</text><text x="625" y="494" font-family="Liberation Sans" font-size="14" fill="#7A8B97">GROUP</text><circle cx="709" cy="488" r="14" fill="#10324C"/><text x="709" y="494" font-family="Liberation Sans" font-size="16" font-weight="bold" text-anchor="middle" fill="#FFFFFF">G</text><rect x="621" y="506" width="235.5" height="35" rx="7" fill="#EEF3F6"/><text x="633" y="530" font-family="Liberation Sans" font-size="15.5" fill="#6B7C88">Belgium</text><rect x="621" y="548" width="235.5" height="35" rx="7" fill="#C8E9F8"/><text x="633" y="572" font-family="Liberation Sans" font-size="15.5" fill="#10324C">Egypt</text><text x="842.5" y="572" font-family="Liberation Sans" font-size="15.5" text-anchor="end" fill="#10324C">2</text><rect x="621" y="590" width="235.5" height="35" rx="7" fill="#C8E9F8"/><text x="633" y="614" font-family="Liberation Sans" font-size="15.5" fill="#10324C">Iran</text><text x="842.5" y="614" font-family="Liberation Sans" font-size="15.5" text-anchor="end" fill="#10324C">2</text><rect x="621" y="632" width="235.5" height="35" rx="7" fill="#EEF3F6"/><text x="633" y="656" font-family="Liberation Sans" font-size="15.5" fill="#6B7C88">New Zealand</text><text x="902.5" y="494" font-family="Liberation Sans" font-size="14" fill="#7A8B97">GROUP</text><circle cx="986.5" cy="488" r="14" fill="#10324C"/><text x="986.5" y="494" font-family="Liberation Sans" font-size="16" font-weight="bold" text-anchor="middle" fill="#FFFFFF">H</text><rect x="898.5" y="506" width="235.5" height="35" rx="7" fill="#EEF3F6"/><text x="910.5" y="530" font-family="Liberation Sans" font-size="15.5" fill="#6B7C88">Spain</text><rect x="898.5" y="548" width="235.5" height="35" rx="7" fill="#EEF3F6"/><text x="910.5" y="572" font-family="Liberation Sans" font-size="15.5" fill="#6B7C88">Cape Verde</text><rect x="898.5" y="590" width="235.5" height="35" rx="7" fill="#C8E9F8"/><text x="910.5" y="614" font-family="Liberation Sans" font-size="15.5" fill="#10324C">Saudi Arabia</text><text x="1120.0" y="614" font-family="Liberation Sans" font-size="15.5" text-anchor="end" fill="#10324C">1</text><circle cx="1100.0" cy="607.5" r="5" fill="#FFC20E"/><rect x="898.5" y="632" width="235.5" height="35" rx="7" fill="#C8E9F8"/><text x="910.5" y="656" font-family="Liberation Sans" font-size="15.5" fill="#10324C">Uruguay</text><text x="1120.0" y="656" font-family="Liberation Sans" font-size="15.5" text-anchor="end" fill="#10324C">1</text><text x="70" y="734" font-family="Liberation Sans" font-size="14" fill="#7A8B97">GROUP</text><circle cx="154" cy="728" r="14" fill="#10324C"/><text x="154" y="734" font-family="Liberation Sans" font-size="16" font-weight="bold" text-anchor="middle" fill="#FFFFFF">I</text><rect x="66" y="746" width="235.5" height="35" rx="7" fill="#EEF3F6"/><text x="78" y="770" font-family="Liberation Sans" font-size="15.5" fill="#6B7C88">France</text><rect x="66" y="788" width="235.5" height="35" rx="7" fill="#7FCBEE"/><text x="78" y="812" font-family="Liberation Sans" font-size="15.5" fill="#10324C">Senegal</text><text x="287.5" y="812" font-family="Liberation Sans" font-size="15.5" text-anchor="end" fill="#10324C">3</text><rect x="66" y="830" width="235.5" height="35" rx="7" fill="#EEF3F6"/><text x="78" y="854" font-family="Liberation Sans" font-size="15.5" fill="#6B7C88">Norway</text><rect x="66" y="872" width="235.5" height="35" rx="7" fill="#2FA8DC"/><text x="78" y="896" font-family="Liberation Sans" font-size="15.5" fill="#FFFFFF">Iraq</text><text x="287.5" y="896" font-family="Liberation Sans" font-size="15.5" text-anchor="end" fill="#FFFFFF">6</text><circle cx="267.5" cy="889.5" r="5" fill="#FFC20E"/><text x="347.5" y="734" font-family="Liberation Sans" font-size="14" fill="#7A8B97">GROUP</text><circle cx="431.5" cy="728" r="14" fill="#10324C"/><text x="431.5" y="734" font-family="Liberation Sans" font-size="16" font-weight="bold" text-anchor="middle" fill="#FFFFFF">J</text><rect x="343.5" y="746" width="235.5" height="35" rx="7" fill="#C8E9F8"/><text x="355.5" y="770" font-family="Liberation Sans" font-size="15.5" fill="#10324C">Argentina</text><text x="565.0" y="770" font-family="Liberation Sans" font-size="15.5" text-anchor="end" fill="#10324C">2</text><rect x="343.5" y="788" width="235.5" height="35" rx="7" fill="#2FA8DC"/><text x="355.5" y="812" font-family="Liberation Sans" font-size="15.5" fill="#FFFFFF">Algeria</text><text x="565.0" y="812" font-family="Liberation Sans" font-size="15.5" text-anchor="end" fill="#FFFFFF">6</text><circle cx="545.0" cy="805.5" r="5" fill="#FFC20E"/><rect x="343.5" y="830" width="235.5" height="35" rx="7" fill="#EEF3F6"/><text x="355.5" y="854" font-family="Liberation Sans" font-size="15.5" fill="#6B7C88">Austria</text><rect x="343.5" y="872" width="235.5" height="35" rx="7" fill="#EEF3F6"/><text x="355.5" y="896" font-family="Liberation Sans" font-size="15.5" fill="#6B7C88">Jordan</text><text x="625" y="734" font-family="Liberation Sans" font-size="14" fill="#7A8B97">GROUP</text><circle cx="709" cy="728" r="14" fill="#10324C"/><text x="709" y="734" font-family="Liberation Sans" font-size="16" font-weight="bold" text-anchor="middle" fill="#FFFFFF">K</text><rect x="621" y="746" width="235.5" height="35" rx="7" fill="#EEF3F6"/><text x="633" y="770" font-family="Liberation Sans" font-size="15.5" fill="#6B7C88">Portugal</text><rect x="621" y="788" width="235.5" height="35" rx="7" fill="#7FCBEE"/><text x="633" y="812" font-family="Liberation Sans" font-size="15.5" fill="#10324C">Uzbekistan</text><text x="842.5" y="812" font-family="Liberation Sans" font-size="15.5" text-anchor="end" fill="#10324C">3</text><rect x="621" y="830" width="235.5" height="35" rx="7" fill="#EEF3F6"/><text x="633" y="854" font-family="Liberation Sans" font-size="15.5" fill="#6B7C88">Colombia</text><rect x="621" y="872" width="235.5" height="35" rx="7" fill="#7FCBEE"/><text x="633" y="896" font-family="Liberation Sans" font-size="15.5" fill="#10324C">DR Congo</text><text x="842.5" y="896" font-family="Liberation Sans" font-size="15.5" text-anchor="end" fill="#10324C">4</text><text x="902.5" y="734" font-family="Liberation Sans" font-size="14" fill="#7A8B97">GROUP</text><circle cx="986.5" cy="728" r="14" fill="#10324C"/><text x="986.5" y="734" font-family="Liberation Sans" font-size="16" font-weight="bold" text-anchor="middle" fill="#FFFFFF">L</text><rect x="898.5" y="746" width="235.5" height="35" rx="7" fill="#EEF3F6"/><text x="910.5" y="770" font-family="Liberation Sans" font-size="15.5" fill="#6B7C88">England</text><rect x="898.5" y="788" width="235.5" height="35" rx="7" fill="#C8E9F8"/><text x="910.5" y="812" font-family="Liberation Sans" font-size="15.5" fill="#10324C">Croatia</text><text x="1120.0" y="812" font-family="Liberation Sans" font-size="15.5" text-anchor="end" fill="#10324C">1</text><rect x="898.5" y="830" width="235.5" height="35" rx="7" fill="#0E7CB1"/><text x="910.5" y="854" font-family="Liberation Sans" font-size="15.5" fill="#FFFFFF">Ghana</text><text x="1120.0" y="854" font-family="Liberation Sans" font-size="15.5" text-anchor="end" fill="#FFFFFF">7</text><circle cx="1100.0" cy="847.5" r="5" fill="#FFC20E"/><rect x="898.5" y="872" width="235.5" height="35" rx="7" fill="#7FCBEE"/><text x="910.5" y="896" font-family="Liberation Sans" font-size="15.5" fill="#10324C">Panama</text><text x="1120.0" y="896" font-family="Liberation Sans" font-size="15.5" text-anchor="end" fill="#10324C">3</text><circle cx="1100.0" cy="889.5" r="5" fill="#FFC20E"/><text x="56" y="966" font-family="Liberation Sans" font-size="15" fill="#5B6E7B">MICS surveys per nation, 1995–2026</text><rect x="346" y="951" width="34" height="20" rx="5" fill="#EEF3F6"/><rect x="436" y="951" width="34" height="20" rx="5" fill="#C8E9F8"/><rect x="526" y="951" width="34" height="20" rx="5" fill="#7FCBEE"/><rect x="616" y="951" width="34" height="20" rx="5" fill="#2FA8DC"/><rect x="706" y="951" width="34" height="20" rx="5" fill="#0E7CB1"/><text x="388" y="966" font-family="Liberation Sans" font-size="14" fill="#5B6E7B">0</text><text x="478" y="966" font-family="Liberation Sans" font-size="14" fill="#5B6E7B">1–2</text><text x="568" y="966" font-family="Liberation Sans" font-size="14" fill="#5B6E7B">3–4</text><text x="658" y="966" font-family="Liberation Sans" font-size="14" fill="#5B6E7B">5–6</text><text x="748" y="966" font-family="Liberation Sans" font-size="14" fill="#5B6E7B">7</text><circle cx="802" cy="960" r="5.5" fill="#FFC20E"/><text x="814" y="966" font-family="Liberation Sans" font-size="14" fill="#5B6E7B">MICS7 in the current round</text><text x="56" y="1004" font-family="Liberation Sans" font-size="12.5" fill="#7A8B97">Source: UNICEF MICS survey catalogue (427 records, MICS1–MICS7) joined to the FIFA World Cup 26 final field. Numbers in tiles are catalogue survey records per nation,</text><text x="56" y="1022" font-family="Liberation Sans" font-size="12.5" fill="#7A8B97">including subnational and special-population surveys. Amber dot: a MICS7 in the current round (incl. one on hold). UNICEF · Data &amp; Analytics · June 2026.</text></svg>